<mxfile host="app.diagrams.net" agent="Mozilla/5.0 (X11; Linux x86_64; rv:139.0) Gecko/20100101 Firefox/139.0" version="28.2.4">
  <diagram name="Seite-1" id="7ddI9it1l7-SynRoXHWr">
    <mxGraphModel dx="1373" dy="737" grid="1" gridSize="10" guides="1" tooltips="1" connect="1" arrows="1" fold="1" page="1" pageScale="1" pageWidth="850" pageHeight="1100" math="0" shadow="0">
      <root>
        <mxCell id="0" />
        <mxCell id="1" parent="0" />
        <mxCell id="CwFvbbqdwVv_Tu-rDWsE-35" value="" style="rounded=1;whiteSpace=wrap;html=1;dashed=1;dashPattern=8 8;fillColor=#dae8fc;strokeColor=#6c8ebf;" vertex="1" parent="1">
          <mxGeometry x="240" y="480" width="360" height="120" as="geometry" />
        </mxCell>
        <mxCell id="CwFvbbqdwVv_Tu-rDWsE-8" value="" style="rounded=1;whiteSpace=wrap;html=1;dashed=1;dashPattern=8 8;fillColor=none;" vertex="1" parent="1">
          <mxGeometry x="180" y="160" width="480" height="120" as="geometry" />
        </mxCell>
        <mxCell id="CwFvbbqdwVv_Tu-rDWsE-2" style="edgeStyle=orthogonalEdgeStyle;rounded=0;orthogonalLoop=1;jettySize=auto;html=1;exitX=1;exitY=0.5;exitDx=0;exitDy=0;entryX=0;entryY=0.5;entryDx=0;entryDy=0;" edge="1" parent="1" source="CwFvbbqdwVv_Tu-rDWsE-1" target="CwFvbbqdwVv_Tu-rDWsE-3">
          <mxGeometry relative="1" as="geometry">
            <mxPoint x="250" y="220" as="targetPoint" />
          </mxGeometry>
        </mxCell>
        <mxCell id="CwFvbbqdwVv_Tu-rDWsE-1" value="input header" style="rounded=1;whiteSpace=wrap;html=1;" vertex="1" parent="1">
          <mxGeometry x="120" y="190" width="120" height="60" as="geometry" />
        </mxCell>
        <mxCell id="CwFvbbqdwVv_Tu-rDWsE-5" style="edgeStyle=orthogonalEdgeStyle;rounded=0;orthogonalLoop=1;jettySize=auto;html=1;" edge="1" parent="1" source="CwFvbbqdwVv_Tu-rDWsE-3" target="CwFvbbqdwVv_Tu-rDWsE-4">
          <mxGeometry relative="1" as="geometry" />
        </mxCell>
        <mxCell id="CwFvbbqdwVv_Tu-rDWsE-3" value="&lt;div&gt;Protocol&lt;/div&gt;&lt;div&gt;(MIDI / PS2)&lt;/div&gt;" style="rounded=1;whiteSpace=wrap;html=1;fillColor=#f8cecc;strokeColor=#b85450;" vertex="1" parent="1">
          <mxGeometry x="280" y="190" width="120" height="60" as="geometry" />
        </mxCell>
        <mxCell id="CwFvbbqdwVv_Tu-rDWsE-6" style="edgeStyle=orthogonalEdgeStyle;rounded=0;orthogonalLoop=1;jettySize=auto;html=1;exitX=1;exitY=0.5;exitDx=0;exitDy=0;" edge="1" parent="1" source="CwFvbbqdwVv_Tu-rDWsE-4">
          <mxGeometry relative="1" as="geometry">
            <mxPoint x="600" y="220" as="targetPoint" />
          </mxGeometry>
        </mxCell>
        <mxCell id="CwFvbbqdwVv_Tu-rDWsE-4" value="oscillator stack" style="rounded=1;whiteSpace=wrap;html=1;fillColor=#dae8fc;strokeColor=#6c8ebf;" vertex="1" parent="1">
          <mxGeometry x="440" y="190" width="120" height="60" as="geometry" />
        </mxCell>
        <mxCell id="CwFvbbqdwVv_Tu-rDWsE-7" value="output header" style="rounded=1;whiteSpace=wrap;html=1;" vertex="1" parent="1">
          <mxGeometry x="600" y="190" width="120" height="60" as="geometry" />
        </mxCell>
        <mxCell id="CwFvbbqdwVv_Tu-rDWsE-11" value="ASIC" style="text;html=1;align=center;verticalAlign=middle;resizable=0;points=[];autosize=1;strokeColor=none;fillColor=none;" vertex="1" parent="1">
          <mxGeometry x="395" y="160" width="50" height="30" as="geometry" />
        </mxCell>
        <mxCell id="CwFvbbqdwVv_Tu-rDWsE-20" style="edgeStyle=orthogonalEdgeStyle;rounded=0;orthogonalLoop=1;jettySize=auto;html=1;" edge="1" parent="1" source="CwFvbbqdwVv_Tu-rDWsE-21">
          <mxGeometry relative="1" as="geometry">
            <mxPoint x="580" y="550" as="targetPoint" />
          </mxGeometry>
        </mxCell>
        <mxCell id="CwFvbbqdwVv_Tu-rDWsE-21" value="" style="rounded=1;whiteSpace=wrap;html=1;" vertex="1" parent="1">
          <mxGeometry x="460" y="520" width="60" height="60" as="geometry" />
        </mxCell>
        <mxCell id="CwFvbbqdwVv_Tu-rDWsE-22" value="" style="rounded=1;whiteSpace=wrap;html=1;" vertex="1" parent="1">
          <mxGeometry x="580" y="520" width="60" height="60" as="geometry" />
        </mxCell>
        <mxCell id="CwFvbbqdwVv_Tu-rDWsE-23" style="edgeStyle=orthogonalEdgeStyle;rounded=0;orthogonalLoop=1;jettySize=auto;html=1;" edge="1" parent="1" source="CwFvbbqdwVv_Tu-rDWsE-24">
          <mxGeometry relative="1" as="geometry">
            <mxPoint x="570" y="540" as="targetPoint" />
          </mxGeometry>
        </mxCell>
        <mxCell id="CwFvbbqdwVv_Tu-rDWsE-24" value="" style="rounded=1;whiteSpace=wrap;html=1;" vertex="1" parent="1">
          <mxGeometry x="450" y="510" width="60" height="60" as="geometry" />
        </mxCell>
        <mxCell id="CwFvbbqdwVv_Tu-rDWsE-25" value="" style="rounded=1;whiteSpace=wrap;html=1;" vertex="1" parent="1">
          <mxGeometry x="570" y="510" width="60" height="60" as="geometry" />
        </mxCell>
        <mxCell id="CwFvbbqdwVv_Tu-rDWsE-17" style="edgeStyle=orthogonalEdgeStyle;rounded=0;orthogonalLoop=1;jettySize=auto;html=1;" edge="1" parent="1" source="CwFvbbqdwVv_Tu-rDWsE-14">
          <mxGeometry relative="1" as="geometry">
            <mxPoint x="560" y="530" as="targetPoint" />
          </mxGeometry>
        </mxCell>
        <mxCell id="CwFvbbqdwVv_Tu-rDWsE-14" value="Square Oscillator" style="rounded=1;whiteSpace=wrap;html=1;" vertex="1" parent="1">
          <mxGeometry x="440" y="500" width="60" height="60" as="geometry" />
        </mxCell>
        <mxCell id="CwFvbbqdwVv_Tu-rDWsE-18" value="Output Pin" style="rounded=1;whiteSpace=wrap;html=1;" vertex="1" parent="1">
          <mxGeometry x="560" y="500" width="60" height="60" as="geometry" />
        </mxCell>
        <mxCell id="CwFvbbqdwVv_Tu-rDWsE-40" style="edgeStyle=orthogonalEdgeStyle;rounded=0;orthogonalLoop=1;jettySize=auto;html=1;exitX=1;exitY=0.5;exitDx=0;exitDy=0;entryX=0;entryY=0.5;entryDx=0;entryDy=0;" edge="1" parent="1" source="CwFvbbqdwVv_Tu-rDWsE-32" target="CwFvbbqdwVv_Tu-rDWsE-33">
          <mxGeometry relative="1" as="geometry" />
        </mxCell>
        <mxCell id="CwFvbbqdwVv_Tu-rDWsE-32" value="&lt;div&gt;Notes&lt;/div&gt;&lt;div&gt;Register&lt;/div&gt;" style="rounded=1;whiteSpace=wrap;html=1;" vertex="1" parent="1">
          <mxGeometry x="200" y="500" width="80" height="80" as="geometry" />
        </mxCell>
        <mxCell id="CwFvbbqdwVv_Tu-rDWsE-46" style="edgeStyle=orthogonalEdgeStyle;rounded=0;orthogonalLoop=1;jettySize=auto;html=1;entryX=0;entryY=0.5;entryDx=0;entryDy=0;" edge="1" parent="1" source="CwFvbbqdwVv_Tu-rDWsE-33" target="CwFvbbqdwVv_Tu-rDWsE-14">
          <mxGeometry relative="1" as="geometry" />
        </mxCell>
        <mxCell id="CwFvbbqdwVv_Tu-rDWsE-33" value="Note to Oscillator Routing" style="rounded=1;whiteSpace=wrap;html=1;" vertex="1" parent="1">
          <mxGeometry x="320" y="500" width="80" height="80" as="geometry" />
        </mxCell>
        <mxCell id="CwFvbbqdwVv_Tu-rDWsE-41" value="" style="rounded=1;whiteSpace=wrap;html=1;fillColor=#f8cecc;strokeColor=#b85450;dashed=1;dashPattern=8 8;" vertex="1" parent="1">
          <mxGeometry x="240" y="320" width="360" height="120" as="geometry" />
        </mxCell>
        <mxCell id="CwFvbbqdwVv_Tu-rDWsE-49" style="edgeStyle=orthogonalEdgeStyle;rounded=0;orthogonalLoop=1;jettySize=auto;html=1;" edge="1" parent="1" source="CwFvbbqdwVv_Tu-rDWsE-42" target="CwFvbbqdwVv_Tu-rDWsE-48">
          <mxGeometry relative="1" as="geometry" />
        </mxCell>
        <mxCell id="CwFvbbqdwVv_Tu-rDWsE-42" value="&lt;div&gt;Input&lt;/div&gt;&lt;div&gt;Stream&lt;/div&gt;" style="rounded=1;whiteSpace=wrap;html=1;" vertex="1" parent="1">
          <mxGeometry x="200" y="340" width="80" height="80" as="geometry" />
        </mxCell>
        <mxCell id="CwFvbbqdwVv_Tu-rDWsE-47" value="&lt;div&gt;Notes&lt;/div&gt;&lt;div&gt;Register&lt;/div&gt;" style="rounded=1;whiteSpace=wrap;html=1;" vertex="1" parent="1">
          <mxGeometry x="560" y="340" width="80" height="80" as="geometry" />
        </mxCell>
        <mxCell id="CwFvbbqdwVv_Tu-rDWsE-50" style="edgeStyle=orthogonalEdgeStyle;rounded=0;orthogonalLoop=1;jettySize=auto;html=1;entryX=0;entryY=0.5;entryDx=0;entryDy=0;" edge="1" parent="1" source="CwFvbbqdwVv_Tu-rDWsE-48" target="CwFvbbqdwVv_Tu-rDWsE-47">
          <mxGeometry relative="1" as="geometry" />
        </mxCell>
        <mxCell id="CwFvbbqdwVv_Tu-rDWsE-48" value="&lt;div&gt;Note&lt;/div&gt;&lt;div&gt;Decoding&lt;/div&gt;" style="rounded=1;whiteSpace=wrap;html=1;" vertex="1" parent="1">
          <mxGeometry x="380" y="340" width="80" height="80" as="geometry" />
        </mxCell>
      </root>
    </mxGraphModel>
  </diagram>
</mxfile>
